<mxfile host="app.diagrams.net" agent="Mozilla/5.0 (Windows NT 10.0; Win64; x64; rv:139.0) Gecko/20100101 Firefox/139.0" version="27.1.6">
  <diagram name="Page-1" id="HvZWRHoF5eh90NApOiEg">
    <mxGraphModel dx="1429" dy="856" grid="1" gridSize="10" guides="1" tooltips="1" connect="1" arrows="1" fold="1" page="1" pageScale="1" pageWidth="3300" pageHeight="4681" math="0" shadow="0">
      <root>
        <mxCell id="0" />
        <mxCell id="1" parent="0" />
        <mxCell id="gfQh-tQ6CZB3DAtU63jK-3" style="edgeStyle=orthogonalEdgeStyle;rounded=0;orthogonalLoop=1;jettySize=auto;html=1;entryX=0;entryY=0.5;entryDx=0;entryDy=0;" parent="1" source="gfQh-tQ6CZB3DAtU63jK-1" target="gfQh-tQ6CZB3DAtU63jK-2" edge="1">
          <mxGeometry relative="1" as="geometry" />
        </mxCell>
        <mxCell id="gfQh-tQ6CZB3DAtU63jK-1" value="data:numeric&#xa;Gene Expression&#xa;Levels" style="rectangle;fillColor=#fff2cc;strokeColor=#d6b656;" parent="1" name="data" vertex="1">
          <mxGeometry x="660" y="430" width="100" height="50" as="geometry" />
        </mxCell>
        <mxCell id="gfQh-tQ6CZB3DAtU63jK-5" style="edgeStyle=orthogonalEdgeStyle;rounded=0;orthogonalLoop=1;jettySize=auto;html=1;entryX=0.5;entryY=0;entryDx=0;entryDy=0;" parent="1" source="gfQh-tQ6CZB3DAtU63jK-2" target="gfQh-tQ6CZB3DAtU63jK-4" edge="1">
          <mxGeometry relative="1" as="geometry" />
        </mxCell>
        <mxCell id="gfQh-tQ6CZB3DAtU63jK-2" value="&lt;div&gt;transform:embed&lt;/div&gt;&lt;div&gt;Fuzzy Rough Set&lt;/div&gt;" style="rounded=1;whiteSpace=wrap;html=1;arcSize=50;fillColor=#f8cecc;strokeColor=#b85450;" parent="1" name="transform" vertex="1">
          <mxGeometry x="840" y="430" width="100" height="50" as="geometry" />
        </mxCell>
        <mxCell id="gfQh-tQ6CZB3DAtU63jK-7" style="edgeStyle=orthogonalEdgeStyle;rounded=0;orthogonalLoop=1;jettySize=auto;html=1;exitX=0.5;exitY=1;exitDx=0;exitDy=0;entryX=1;entryY=0.5;entryDx=0;entryDy=0;" parent="1" source="gfQh-tQ6CZB3DAtU63jK-4" target="gfQh-tQ6CZB3DAtU63jK-6" edge="1">
          <mxGeometry relative="1" as="geometry" />
        </mxCell>
        <mxCell id="gfQh-tQ6CZB3DAtU63jK-4" value="data&#xa;Fuzzy Equivalence&#xa;Relations and Lower&#xa;+ Upper Approx." style="rectangle;fillColor=#fff2cc;strokeColor=#d6b656;" parent="1" name="data" vertex="1">
          <mxGeometry x="960" y="530" width="100" height="50" as="geometry" />
        </mxCell>
        <mxCell id="gfQh-tQ6CZB3DAtU63jK-9" style="edgeStyle=orthogonalEdgeStyle;rounded=0;orthogonalLoop=1;jettySize=auto;html=1;exitX=0;exitY=0.5;exitDx=0;exitDy=0;entryX=1;entryY=0.5;entryDx=0;entryDy=0;" parent="1" source="gfQh-tQ6CZB3DAtU63jK-6" target="gfQh-tQ6CZB3DAtU63jK-8" edge="1">
          <mxGeometry relative="1" as="geometry" />
        </mxCell>
        <mxCell id="gfQh-tQ6CZB3DAtU63jK-6" value="transform:embed" style="rounded=1;whiteSpace=wrap;html=1;arcSize=50;fillColor=#f8cecc;strokeColor=#b85450;" parent="1" name="transform" vertex="1">
          <mxGeometry x="840" y="640" width="100" height="50" as="geometry" />
        </mxCell>
        <mxCell id="gfQh-tQ6CZB3DAtU63jK-11" style="edgeStyle=orthogonalEdgeStyle;rounded=0;orthogonalLoop=1;jettySize=auto;html=1;entryX=0.5;entryY=0;entryDx=0;entryDy=0;" parent="1" source="gfQh-tQ6CZB3DAtU63jK-8" target="gfQh-tQ6CZB3DAtU63jK-10" edge="1">
          <mxGeometry relative="1" as="geometry" />
        </mxCell>
        <mxCell id="gfQh-tQ6CZB3DAtU63jK-8" value="data&#xa;Fuzzy Information&#xa;Measures" style="rectangle;fillColor=#fff2cc;strokeColor=#d6b656;" parent="1" name="data" vertex="1">
          <mxGeometry x="660" y="640" width="100" height="50" as="geometry" />
        </mxCell>
        <mxCell id="gfQh-tQ6CZB3DAtU63jK-13" style="edgeStyle=orthogonalEdgeStyle;rounded=0;orthogonalLoop=1;jettySize=auto;html=1;exitX=0.5;exitY=1;exitDx=0;exitDy=0;entryX=0;entryY=0.5;entryDx=0;entryDy=0;" parent="1" source="gfQh-tQ6CZB3DAtU63jK-10" target="gfQh-tQ6CZB3DAtU63jK-12" edge="1">
          <mxGeometry relative="1" as="geometry" />
        </mxCell>
        <mxCell id="gfQh-tQ6CZB3DAtU63jK-10" value="transform:embed" style="rounded=1;whiteSpace=wrap;html=1;arcSize=50;fillColor=#f8cecc;strokeColor=#b85450;" parent="1" name="transform" vertex="1">
          <mxGeometry x="540" y="750" width="100" height="50" as="geometry" />
        </mxCell>
        <mxCell id="gfQh-tQ6CZB3DAtU63jK-15" style="edgeStyle=orthogonalEdgeStyle;rounded=0;orthogonalLoop=1;jettySize=auto;html=1;exitX=1;exitY=0.5;exitDx=0;exitDy=0;entryX=0;entryY=0.5;entryDx=0;entryDy=0;" parent="1" source="gfQh-tQ6CZB3DAtU63jK-12" target="gfQh-tQ6CZB3DAtU63jK-14" edge="1">
          <mxGeometry relative="1" as="geometry" />
        </mxCell>
        <mxCell id="gfQh-tQ6CZB3DAtU63jK-12" value="data&#xa;Fuzzy Gain Rules" style="rectangle;fillColor=#fff2cc;strokeColor=#d6b656;" parent="1" name="data" vertex="1">
          <mxGeometry x="660" y="850" width="100" height="50" as="geometry" />
        </mxCell>
        <mxCell id="gfQh-tQ6CZB3DAtU63jK-17" style="edgeStyle=orthogonalEdgeStyle;rounded=0;orthogonalLoop=1;jettySize=auto;html=1;entryX=0.5;entryY=0;entryDx=0;entryDy=0;" parent="1" source="gfQh-tQ6CZB3DAtU63jK-14" target="gfQh-tQ6CZB3DAtU63jK-16" edge="1">
          <mxGeometry relative="1" as="geometry" />
        </mxCell>
        <mxCell id="gfQh-tQ6CZB3DAtU63jK-14" value="transform:embed" style="rounded=1;whiteSpace=wrap;html=1;arcSize=50;fillColor=#f8cecc;strokeColor=#b85450;" parent="1" name="transform" vertex="1">
          <mxGeometry x="840" y="850" width="100" height="50" as="geometry" />
        </mxCell>
        <mxCell id="gfQh-tQ6CZB3DAtU63jK-20" style="edgeStyle=orthogonalEdgeStyle;rounded=0;orthogonalLoop=1;jettySize=auto;html=1;exitX=0.5;exitY=1;exitDx=0;exitDy=0;entryX=0.5;entryY=0;entryDx=0;entryDy=0;" parent="1" source="gfQh-tQ6CZB3DAtU63jK-16" target="gfQh-tQ6CZB3DAtU63jK-19" edge="1">
          <mxGeometry relative="1" as="geometry" />
        </mxCell>
        <mxCell id="gfQh-tQ6CZB3DAtU63jK-16" value="data&#xa;Selected Attributes" style="rectangle;fillColor=#fff2cc;strokeColor=#d6b656;" parent="1" name="data" vertex="1">
          <mxGeometry x="970" y="950" width="100" height="50" as="geometry" />
        </mxCell>
        <mxCell id="gfQh-tQ6CZB3DAtU63jK-22" style="edgeStyle=orthogonalEdgeStyle;rounded=0;orthogonalLoop=1;jettySize=auto;html=1;exitX=0;exitY=0.5;exitDx=0;exitDy=0;entryX=1;entryY=0.5;entryDx=0;entryDy=0;" parent="1" source="gfQh-tQ6CZB3DAtU63jK-19" target="gfQh-tQ6CZB3DAtU63jK-21" edge="1">
          <mxGeometry relative="1" as="geometry" />
        </mxCell>
        <mxCell id="gfQh-tQ6CZB3DAtU63jK-19" value="generate:train" style="rounded=1;whiteSpace=wrap;html=1;arcSize=50;fillColor=#e1d5e7;strokeColor=#9673a6;" parent="1" name="generate:train" vertex="1">
          <mxGeometry x="970" y="1070" width="100" height="50" as="geometry" />
        </mxCell>
        <mxCell id="gfQh-tQ6CZB3DAtU63jK-24" style="edgeStyle=orthogonalEdgeStyle;rounded=0;orthogonalLoop=1;jettySize=auto;html=1;exitX=0;exitY=0.5;exitDx=0;exitDy=0;entryX=1;entryY=0.5;entryDx=0;entryDy=0;" parent="1" source="gfQh-tQ6CZB3DAtU63jK-21" target="gfQh-tQ6CZB3DAtU63jK-23" edge="1">
          <mxGeometry relative="1" as="geometry" />
        </mxCell>
        <mxCell id="gfQh-tQ6CZB3DAtU63jK-21" value="model:semantic" style="shape=hexagon;perimeter=hexagonPerimeter2;fillColor=#b0e3e6;strokeColor=#0e8088;" parent="1" name="model" vertex="1">
          <mxGeometry x="740" y="1070" width="120" height="50" as="geometry" />
        </mxCell>
        <mxCell id="gfQh-tQ6CZB3DAtU63jK-26" style="edgeStyle=orthogonalEdgeStyle;rounded=0;orthogonalLoop=1;jettySize=auto;html=1;entryX=1;entryY=0.5;entryDx=0;entryDy=0;" parent="1" source="gfQh-tQ6CZB3DAtU63jK-23" target="gfQh-tQ6CZB3DAtU63jK-25" edge="1">
          <mxGeometry relative="1" as="geometry" />
        </mxCell>
        <mxCell id="gfQh-tQ6CZB3DAtU63jK-23" value="infer:deduce" style="rounded=1;whiteSpace=wrap;html=1;arcSize=50;fillColor=#bac8d3;strokeColor=#23445d;" parent="1" name="infer:deduce" vertex="1">
          <mxGeometry x="540" y="1070" width="100" height="50" as="geometry" />
        </mxCell>
        <mxCell id="gfQh-tQ6CZB3DAtU63jK-25" value="symbol:label&#xa;Tumor Class" style="rectangle;fillColor=#dae8fc;strokeColor=#6c8ebf;" parent="1" name="symbol" vertex="1">
          <mxGeometry x="340" y="1070" width="100" height="50" as="geometry" />
        </mxCell>
        <mxCell id="gfQh-tQ6CZB3DAtU63jK-28" style="edgeStyle=orthogonalEdgeStyle;rounded=0;orthogonalLoop=1;jettySize=auto;html=1;entryX=0.5;entryY=1;entryDx=0;entryDy=0;" parent="1" source="gfQh-tQ6CZB3DAtU63jK-27" target="gfQh-tQ6CZB3DAtU63jK-23" edge="1">
          <mxGeometry relative="1" as="geometry" />
        </mxCell>
        <mxCell id="gfQh-tQ6CZB3DAtU63jK-27" value="data:numeric&#xa;Gene Expression&#xa;Levels" style="rectangle;fillColor=#fff2cc;strokeColor=#d6b656;" parent="1" name="data" vertex="1">
          <mxGeometry x="540" y="1190" width="100" height="50" as="geometry" />
        </mxCell>
      </root>
    </mxGraphModel>
  </diagram>
</mxfile>
